<?xml version="1.0" standalone="no"?><svg xmlns="http://www.w3.org/2000/svg" viewBox="0 0 1440 320"><path fill="#ffffff" fill-opacity="1" d="M0,288L20,245.3C40,203,80,117,120,74.7C160,32,200,32,240,58.7C280,85,320,139,360,170.7C400,203,440,213,480,186.7C520,160,560,96,600,106.7C640,117,680,203,720,229.3C760,256,800,224,840,208C880,192,920,192,960,208C1000,224,1040,256,1080,229.3C1120,203,1160,117,1200,74.7C1240,32,1280,32,1320,42.7C1360,53,1400,75,1420,85.3L1440,96L1440,320L1420,320C1400,320,1360,320,1320,320C1280,320,1240,320,1200,320C1160,320,1120,320,1080,320C1040,320,1000,320,960,320C920,320,880,320,840,320C800,320,760,320,720,320C680,320,640,320,600,320C560,320,520,320,480,320C440,320,400,320,360,320C320,320,280,320,240,320C200,320,160,320,120,320C80,320,40,320,20,320L0,320Z"></path></svg>