<?xml version="1.0" standalone="no"?><svg xmlns="http://www.w3.org/2000/svg" viewBox="0 0 1440 320"><path fill="#ffffff" fill-opacity="1" d="M0,256L20,250.7C40,245,80,235,120,197.3C160,160,200,96,240,90.7C280,85,320,139,360,154.7C400,171,440,149,480,165.3C520,181,560,235,600,229.3C640,224,680,160,720,133.3C760,107,800,117,840,138.7C880,160,920,192,960,181.3C1000,171,1040,117,1080,128C1120,139,1160,213,1200,256C1240,299,1280,309,1320,282.7C1360,256,1400,192,1420,160L1440,128L1440,320L1420,320C1400,320,1360,320,1320,320C1280,320,1240,320,1200,320C1160,320,1120,320,1080,320C1040,320,1000,320,960,320C920,320,880,320,840,320C800,320,760,320,720,320C680,320,640,320,600,320C560,320,520,320,480,320C440,320,400,320,360,320C320,320,280,320,240,320C200,320,160,320,120,320C80,320,40,320,20,320L0,320Z"></path></svg>